<svg width="18" height="18" viewBox="0 0 18 18" fill="none" xmlns="http://www.w3.org/2000/svg">
<path d="M10.7467 11.9952C11.9884 11.47 13.1529 12.1221 13.1529 13.6426C13.1529 14.3989 12.8621 14.9898 12.2477 15.4796L12.1344 15.5645L12.2848 15.5723C12.7003 15.5835 13.1518 15.5318 13.6012 15.4024L13.7691 15.3497C14.2505 15.1897 14.8402 14.7478 15.276 14.2628C15.5251 13.9856 15.9518 13.963 16.2291 14.212C16.5064 14.4611 16.529 14.8878 16.2799 15.1651C15.701 15.8094 14.932 16.386 14.1949 16.6309C12.9006 17.0609 11.501 17.0127 10.4918 16.5391L10.2984 16.4385L10.0172 16.5313L9.65294 16.6397C9.52414 16.6765 9.37621 16.7109 9.20958 16.7442L8.8502 16.8087L8.44005 16.8682L7.97813 16.9239L7.46349 16.9747C7.37359 16.9828 7.28138 16.9913 7.18712 16.9991L6.27794 17.0645L5.60509 17.1036C5.2329 17.1232 4.91482 16.8371 4.89513 16.4649C4.87548 16.0927 5.16161 15.7747 5.5338 15.755L6.42345 15.7022L6.9586 15.6632L7.44688 15.6202C7.52428 15.6129 7.59997 15.6062 7.67345 15.5987L8.09142 15.5518L8.46153 15.503L8.78282 15.4512C8.93167 15.4249 9.06293 15.3983 9.1754 15.3702L9.24962 15.3487L9.21056 15.2569C9.17473 15.1642 9.14528 15.0678 9.12267 14.9678L9.09435 14.8155C8.91062 13.6011 9.66916 12.451 10.7467 11.9952ZM11.7408 7.35261L4.42345 14.7872L1.40685 15.2383L1.71056 12.1163L9.02794 4.68171L11.7408 7.35261ZM11.8033 13.6426C11.8033 13.1451 11.6695 13.0703 11.2721 13.2383C10.7296 13.4681 10.3435 14.0529 10.4283 14.6133C10.4415 14.7 10.473 14.7828 10.5191 14.8604L10.5524 14.9092L10.5895 14.8936C11.429 14.5336 11.7656 14.168 11.8004 13.7217L11.8033 13.6426ZM11.5895 2.07917C11.9332 1.72998 12.507 1.7373 12.8717 2.09577L14.2652 3.46687C14.6298 3.82573 14.6461 4.39976 14.3024 4.74909L12.6744 6.40339L9.96153 3.73249L11.5895 2.07917Z" fill="#262626"/>
</svg>
