<svg width="16" height="16" viewBox="0 0 16 16" fill="none" xmlns="http://www.w3.org/2000/svg">
<path fill-rule="evenodd" clip-rule="evenodd" d="M13.137 3.91398C13.3607 3.62 13.3383 3.1986 13.0698 2.93012C12.7769 2.63723 12.3021 2.63723 12.0092 2.93012L8 6.93931L3.99081 2.93012L3.91401 2.863C3.62003 2.63926 3.19863 2.66163 2.93015 2.93012C2.63726 3.22301 2.63726 3.69789 2.93015 3.99078L6.93934 7.99997L2.93015 12.0092L2.86303 12.086C2.63929 12.3799 2.66166 12.8013 2.93015 13.0698C3.22304 13.3627 3.69792 13.3627 3.99081 13.0698L8 9.06063L12.0092 13.0698L12.086 13.1369C12.38 13.3607 12.8014 13.3383 13.0698 13.0698C13.3627 12.7769 13.3627 12.302 13.0698 12.0092L9.06066 7.99997L13.0698 3.99078L13.137 3.91398Z" fill="#BDBDBD"/>
</svg>
