<svg width="18" height="18" viewBox="0 0 18 18" fill="none" xmlns="http://www.w3.org/2000/svg">
<path fill-rule="evenodd" clip-rule="evenodd" d="M5.84956 2.25H7.64956V3.6H10.3496V2.25H12.1496V3.6H15.7496C15.9981 3.6 16.1996 3.80147 16.1996 4.05V15.525C16.1996 15.7735 15.9981 15.975 15.7496 15.975H2.24956C2.00103 15.975 1.79956 15.7735 1.79956 15.525V4.05C1.79956 3.80147 2.00103 3.6 2.24956 3.6H5.84956V2.25ZM10.3496 5.4V6.75H12.1496V5.4H14.3996V8.55H3.59956V5.4H5.84956V6.75H7.64956V5.4H10.3496ZM5.39956 10.8C4.77824 10.8 4.27456 11.3037 4.27456 11.925C4.27456 12.5463 4.77824 13.05 5.39956 13.05C6.02088 13.05 6.52456 12.5463 6.52456 11.925C6.52456 11.3037 6.02088 10.8 5.39956 10.8ZM7.87456 11.925C7.87456 12.5463 8.37824 13.05 8.99956 13.05C9.62088 13.05 10.1246 12.5463 10.1246 11.925C10.1246 11.3037 9.62088 10.8 8.99956 10.8C8.37824 10.8 7.87456 11.3037 7.87456 11.925ZM12.5996 10.8C11.9782 10.8 11.4746 11.3037 11.4746 11.925C11.4746 12.5463 11.9782 13.05 12.5996 13.05C13.2209 13.05 13.7246 12.5463 13.7246 11.925C13.7246 11.3037 13.2209 10.8 12.5996 10.8Z" fill="#262626"/>
</svg>
