<svg width="16" height="16" viewBox="0 0 16 16" fill="none" xmlns="http://www.w3.org/2000/svg">
<path d="M8 0C12.4183 0 16 3.58172 16 8C16 12.4183 12.4183 16 8 16C3.58172 16 0 12.4183 0 8C0 3.58172 3.58172 0 8 0ZM8 1.29032C4.29435 1.29032 1.29032 4.29435 1.29032 8C1.29032 11.7057 4.29435 14.7097 8 14.7097C11.7057 14.7097 14.7097 11.7057 14.7097 8C14.7097 4.29435 11.7057 1.29032 8 1.29032Z" fill="#5F11F1"/>
<path d="M12 8C12 10.2091 10.2091 12 8 12C5.79086 12 4 10.2091 4 8C4 5.79086 5.79086 4 8 4C10.2091 4 12 5.79086 12 8Z" fill="#5F11F1"/>
</svg>
