<svg width="16" height="11" viewBox="0 0 16 11" fill="none" xmlns="http://www.w3.org/2000/svg">
<path d="M5.44359 8.42661C6.72311 7.34438 8.59769 7.34438 9.87721 8.42661C9.94144 8.48481 9.9783 8.56721 9.98007 8.65387C9.98181 8.74061 9.94795 8.82429 9.88603 8.88506L7.88277 10.9069C7.82406 10.9663 7.74391 11 7.6604 11C7.57688 11 7.49676 10.9663 7.43803 10.9069L5.43379 8.88506C5.372 8.82427 5.33797 8.74053 5.33975 8.65387C5.34159 8.56715 5.37924 8.48477 5.44359 8.42661ZM2.77029 5.72882C5.5269 3.16487 9.79584 3.16492 12.5525 5.72882C12.6146 5.78885 12.6504 5.87166 12.6514 5.95804C12.6523 6.04448 12.6182 6.12786 12.5574 6.18923L11.3995 7.35984C11.2802 7.47931 11.087 7.48198 10.9646 7.36571C10.0593 6.546 8.88162 6.0922 7.6604 6.09225C6.43994 6.09275 5.26287 6.54651 4.3582 7.36571C4.23575 7.48191 4.04257 7.47929 3.92326 7.35984L2.76539 6.18923C2.70465 6.12809 2.67066 6.0452 2.67135 5.95902C2.67217 5.87246 2.70802 5.78895 2.77029 5.72882ZM0.0969863 3.03886C4.32517 -1.01283 10.9958 -1.01308 15.2238 3.03886C15.2849 3.09899 15.3192 3.18139 15.3198 3.26711C15.3203 3.35293 15.2862 3.43543 15.2258 3.49633L14.0659 4.66694C13.9464 4.78679 13.7532 4.78804 13.632 4.66988C12.0211 3.13842 9.88309 2.28471 7.6604 2.28458C5.43743 2.28457 3.29897 3.13826 1.68784 4.66988C1.56668 4.78824 1.3733 4.78701 1.25388 4.66694L0.0940475 3.49633C0.0335964 3.43538 -0.00055788 3.35295 6.89493e-06 3.26711C0.000624755 3.18134 0.0357864 3.09897 0.0969863 3.03886Z" fill="black"/>
</svg>
