<svg xmlns="http://www.w3.org/2000/svg" viewBox="0 0 117 58" fill="none" aria-hidden="true">
  <g>
    <path d="M50.4431 0H66.5569L55.3473 48.4498C54.1796 54.0402 49.0419 58 43.4371 58H27.3234L38.5329 9.5502C39.7006 3.95984 44.8383 0 50.4431 0Z" fill="#F36F21"/>
    <path d="M0 49.1486H16.1138C21.9521 49.1486 26.8563 45.1888 28.024 39.5984L35.0299 8.85141H19.1497C13.3114 8.85141 8.40719 12.8112 7.00599 18.4016L0 49.1486Z" fill="#0066B3"/>
    <path d="M58.6168 49.1486H74.7305C80.5689 49.1486 85.4731 45.1888 86.6407 39.5984L93.6467 8.85141H77.5329C71.6946 8.85141 66.7904 12.8112 65.6228 18.4016C65.8563 18.4016 58.6168 49.1486 58.6168 49.1486Z" fill="#0DB14B"/>
    <path d="M10.2754 23.2932L6.53892 38.8996C9.10778 38.8996 11.4431 37.0361 11.9102 34.4739L12.6108 30.9799H19.8503C22.4192 30.9799 24.7545 29.1165 25.4551 26.5542H14.012L14.7126 23.2932H24.521C27.0898 23.2932 29.4252 21.4297 30.1257 18.8675H15.8802C13.0778 18.8675 10.7425 20.7309 10.2754 23.2932Z" fill="#fff"/>
    <path d="M58.1497 23.0602C58.6168 20.9639 56.982 18.8675 54.8802 18.8675H40.4012L35.7305 38.8996C38.2994 38.8996 40.6347 37.0361 41.3353 34.4739L42.0359 30.9799H51.8443C54.4132 30.9799 56.7485 29.1165 57.2156 26.7871L58.1497 23.0602ZM52.7784 26.7871H43.2036L43.9042 23.5261H53.479L52.7784 26.7871Z" fill="#fff"/>
    <path d="M84.0719 18.8675H68.8922V19.3333C68.4252 21.4297 70.0599 23.5261 72.1617 23.5261H75.4311L71.9281 39.1325H72.1617C74.7305 39.1325 76.8323 37.502 77.5329 34.9398L80.1018 23.5261H87.5749V23.0602C87.8084 20.9639 86.1737 18.8675 84.0719 18.8675Z" fill="#fff"/>
  </g>
  <g transform="translate(89.68 42.39)">
    <path d="M3.26946 0C1.40119 0 0 1.39759 0 3.26104C0 5.1245 1.40119 6.52209 3.26946 6.52209C5.13772 6.52209 6.53892 5.1245 6.53892 3.26104C6.53892 1.39759 4.90419 0 3.26946 0ZM3.26946 5.82329C1.86826 5.82329 0.700597 4.65863 0.700597 3.26104C0.700597 1.86345 1.86826 0.698793 3.26946 0.698793C4.67065 0.698793 5.83832 1.86345 5.83832 3.26104C5.83832 4.65863 4.67065 5.82329 3.26946 5.82329Z" fill="#0066B3"/>
    <path d="M3.26946 3.7269H2.80239V4.89156H2.10179V1.63052H3.26946C3.73652 1.63052 3.97006 1.63052 4.20359 1.86345C4.43713 2.09638 4.43712 2.32931 4.43712 2.56224C4.43712 2.79518 4.43713 3.02811 4.20359 3.02811C4.20359 3.26104 3.97006 3.26104 3.73653 3.49398L4.43712 4.89156H3.73653C3.97006 5.12449 3.26946 3.7269 3.26946 3.7269ZM2.80239 3.26104H3.26946C3.50299 3.26104 3.50299 3.26104 3.73653 3.02811C3.73653 3.02811 3.97005 2.79518 3.97005 2.56224C3.97005 2.32931 3.97006 2.32932 3.73653 2.09638C3.73653 2.09638 3.50299 1.86345 3.26946 1.86345H2.80239V3.26104Z" fill="#0066B3"/>
  </g>
  <g transform="translate(104.39 23.52)">
    <path d="M0 15.3735V0.23293H2.33533V15.3735H0Z" fill="#0066B3"/>
    <path d="M11.2096 14.4418C10.2754 15.1406 9.10778 15.6064 7.47305 15.6064C5.83832 15.6064 4.67065 15.3735 3.73652 14.9076L4.43712 12.8112C5.37125 13.2771 6.30538 13.51 7.23952 13.51C8.17365 13.51 8.87425 13.2771 9.34132 12.8112C9.80838 12.3454 10.0419 11.8795 10.0419 11.1807C10.0419 10.249 9.34131 9.31727 7.70658 8.61847C6.53892 8.15261 5.60479 7.45382 5.13772 6.98795C4.20359 6.28916 3.97006 5.35743 3.97006 4.19277C3.97006 2.79518 4.43712 1.86345 5.37125 1.16466C6.30539 0.465863 7.47305 0 8.87425 0C10.2754 0 11.4431 0.23293 12.3772 0.698793L11.6766 2.56225C10.7425 2.09638 10.0419 1.86345 9.10778 1.86345C8.40718 1.86345 7.70658 2.09639 7.23952 2.32932C6.77245 2.79518 6.53892 3.26104 6.53892 3.95984C6.53892 4.89157 7.47305 5.82329 9.10778 6.52209C10.2754 6.98795 11.2096 7.68675 11.6766 8.15261C12.6108 8.85141 12.8443 9.78313 12.8443 10.9478C12.6108 12.5783 12.1437 13.51 11.2096 14.4418Z" fill="#0066B3"/>
  </g>
</svg>
